<?xml version="1.0" encoding="UTF-8" standalone="no"?>
<svg
   xmlns:dc="http://purl.org/dc/elements/1.1/"
   xmlns:cc="http://creativecommons.org/ns#"
   xmlns:rdf="http://www.w3.org/1999/02/22-rdf-syntax-ns#"
   xmlns:svg="http://www.w3.org/2000/svg"
   xmlns="http://www.w3.org/2000/svg"
   xmlns:sodipodi="http://sodipodi.sourceforge.net/DTD/sodipodi-0.dtd"
   xmlns:inkscape="http://www.inkscape.org/namespaces/inkscape"
   sodipodi:docname="acnhlogo.svg"
   inkscape:version="1.0 (4035a4fb49, 2020-05-01)"
   id="svg8"
   version="1.1"
   viewBox="0 0 135.46496 135.46496"
   height="512"
   width="512">
  <defs
     id="defs2">
    <inkscape:perspective
       id="perspective10"
       inkscape:persp3d-origin="67.73248 : 45.154987 : 1"
       inkscape:vp_z="135.46496 : 67.73248 : 1"
       inkscape:vp_y="0 : 1000 : 0"
       inkscape:vp_x="0 : 67.73248 : 1"
       sodipodi:type="inkscape:persp3d" />
  </defs>
  <sodipodi:namedview
     inkscape:window-maximized="1"
     inkscape:window-y="-8"
     inkscape:window-x="-8"
     inkscape:window-height="1017"
     inkscape:window-width="1920"
     units="px"
     showgrid="false"
     inkscape:document-rotation="0"
     inkscape:current-layer="layer1"
     inkscape:document-units="px"
     inkscape:cy="202.79266"
     inkscape:cx="-351.00289"
     inkscape:zoom="0.7"
     inkscape:pageshadow="2"
     inkscape:pageopacity="0.0"
     borderopacity="1.0"
     bordercolor="#666666"
     pagecolor="#ffffff"
     id="base" />
  <metadata
     id="metadata5">
    <rdf:RDF>
      <cc:Work
         rdf:about="">
        <dc:format>image/svg+xml</dc:format>
        <dc:type
           rdf:resource="http://purl.org/dc/dcmitype/StillImage" />
        <dc:title></dc:title>
      </cc:Work>
    </rdf:RDF>
  </metadata>
  <g
     id="layer1"
     inkscape:groupmode="layer"
     inkscape:label="Layer 1">
    <rect
       ry="8.7141199"
       rx="8.7141199"
       y="0.13203213"
       x="0.13203213"
       height="135.2009"
       width="135.2009"
       id="rect28"
       style="fill:#fffafa;stroke:#006400;stroke-width:0.264064" />
    <path
       id="path890"
       d="m 45.287259,0.18898572 c 0,135.31377428 0,135.31377428 0,135.31377428"
       style="fill:none;stroke:#000000;stroke-width:0.26458px;stroke-linecap:butt;stroke-linejoin:miter;stroke-opacity:1" />
    <path
       id="path907"
       d="m 0,33.99853 c 136.07183,0 135.69174,0 135.69174,0"
       style="fill:none;stroke:#000000;stroke-width:0.26532px;stroke-linecap:butt;stroke-linejoin:miter;stroke-opacity:1" />
    <path
       style="fill:none;stroke:#000000;stroke-width:0.265321px;stroke-linecap:butt;stroke-linejoin:miter;stroke-opacity:1"
       d="m 0,101.73138 c 136.07183,0 135.69174,0 135.69174,0"
       id="path907-7" />
    <path
       sodipodi:nodetypes="cccscc"
       d="m 90.402039,101.78803 44.911741,-0.18931 c 0,0 0.0594,15.38005 0.0594,25.02298 0,4.83706 -3.89409,8.73114 -8.73114,8.73114 l -36.199755,-0.13363 z"
       style="fill:#00ffff;fill-opacity:0.502008;stroke:none;stroke-width:0.264596"
       id="rect1141" />
    <rect
       inkscape:label="rect1141-4"
       style="fill:#00ffff;fill-opacity:0.502008;stroke:none;stroke-width:0.26458"
       id="rect1141-4"
       width="44.896698"
       height="33.544895"
       x="45.545555"
       y="0.18891013" />
    <path
       sodipodi:nodetypes="cccscc"
       d="m 0,101.73138 45.062923,0.0567 v 33.5449 L 9.0671338,135.2557 C 4.2300932,135.24532 0.33599362,131.36161 0.33599362,126.52456 0.10274846,118.13583 0,101.73138 0,101.73138 Z"
       style="fill:#00ffff;fill-opacity:0.502008;stroke:none;stroke-width:0.265123"
       id="rect1141-3" />
    <rect
       y="101.78803"
       x="45.062923"
       height="33.544895"
       width="45.339115"
       id="rect1141-4-8"
       style="fill:#f08080;fill-opacity:0.502008;stroke:none;stroke-width:0.26588" />
    <path
       sodipodi:nodetypes="cscccc"
       d="m 90.442253,0.18891013 36.607977,3.5e-7 c 4.83705,5e-8 8.73114,3.89408852 8.73114,8.73114012 -0.15972,8.5120984 -0.46759,25.2107704 -0.46759,25.2107704 L 90.442253,33.733807 Z"
       style="fill:#f08080;fill-opacity:0.502008;stroke:none;stroke-width:0.265879;image-rendering:auto"
       id="rect1141-4-8-5" />
    <path
       sodipodi:nodetypes="sccccs"
       d="M 8.7311401,0.0527341 45.287259,0.18898572 45.545555,33.733807 0,33.99853 c 0,0 0,-15.536497 0,-25.2146558 C 0,3.9468226 3.8940885,0.0527341 8.7311401,0.0527341 Z"
       style="fill:#f08080;fill-opacity:0.502008;stroke:none;stroke-width:0.267463"
       id="rect1141-4-8-1" />
  </g>
  <g
     inkscape:label="Lines"
     id="layer2"
     inkscape:groupmode="layer">
    <path
       style="fill:#008000;stroke:#006400;stroke-width:0.264303px;stroke-linecap:butt;stroke-linejoin:miter;stroke-opacity:1"
       d="m 90.442255,0.18891012 c 0,135.03029988 0,135.03029988 0,135.03029988"
       id="path890-4" />
    <rect
       y="34.130821"
       x="0.33599362"
       height="67.467903"
       width="134.97778"
       id="rect1074"
       style="fill:#00fa9a;fill-opacity:1;stroke:none;stroke-width:0.457314" />
    <text
       id="text1112"
       y="65.237869"
       x="23.472025"
       style="font-size:10.5832px;line-height:0;font-family:'Matura MT Script Capitals';-inkscape-font-specification:'Matura MT Script Capitals';fill:#ffffff;fill-opacity:1;stroke-width:0.26458"
       xml:space="preserve"><tspan
         y="65.237869"
         x="23.472025"
         id="tspan1208"
         sodipodi:role="line"
         style="font-style:normal;font-variant:normal;font-weight:normal;font-stretch:normal;font-size:22.5775px;line-height:2.15;font-family:'Jenna Sue';-inkscape-font-specification:'Jenna Sue';letter-spacing:0px;baseline-shift:baseline;fill:#ffffff;fill-opacity:1;stroke-width:0.26458">COLLECTION</tspan><tspan
         id="tspan1114"
         style="line-height:1.25;fill:#ffffff;fill-opacity:1;stroke-width:0.26458"
         y="85.910088"
         x="23.472025"
         sodipodi:role="line" /></text>
    <text
       xml:space="preserve"
       style="font-size:10.5832px;line-height:1.25;font-family:'Matura MT Script Capitals';-inkscape-font-specification:'Matura MT Script Capitals';fill:#ffffff;fill-opacity:1;stroke-width:0.26458"
       x="42.720997"
       y="89.294945"
       id="text1112-0"><tspan
         sodipodi:role="line"
         id="tspan1110-3"
         x="42.720997"
         y="89.294945"
         style="font-style:normal;font-variant:normal;font-weight:normal;font-stretch:normal;font-size:22.5775px;font-family:'Jenna Sue';-inkscape-font-specification:'Jenna Sue';fill:#ffffff;fill-opacity:1;stroke-width:0.26458">ALBUM</tspan><tspan
         sodipodi:role="line"
         x="42.720997"
         y="106.42179"
         style="fill:#ffffff;fill-opacity:1;stroke-width:0.26458"
         id="tspan1114-4" /></text>
    <path
       sodipodi:nodetypes="csscccccsscsscscsscssccsccscsscsscsscssscsscccscscscsscssccscsscsccscscscscscscsccsscsscssscsssccc"
       d="m 120.72836,4.0641827 c 0.60421,-0.3570653 1.24383,-0.6600596 1.81263,-1.0711958 0.29906,-0.2161637 -0.6636,0.322953 -0.9968,0.4815054 -1.61901,0.7703901 -3.22106,1.5620084 -4.80334,2.4057908 -1.89913,1.1771267 -4.75299,2.3946747 -5.89681,4.5737289 -0.099,0.188658 -0.16264,0.393882 -0.24396,0.590822 -0.0534,0.313146 -0.18563,0.697608 0.009,1.008417 0.64193,1.02387 2.55507,1.032323 3.56941,1.07892 1.09008,0.005 2.20044,-0.03137 3.25673,-0.333519 0.24962,-0.0714 0.50158,-0.148909 0.72917,-0.273857 2.83399,-1.555876 2.19737,-0.886964 3.23748,-2.146337 0.0324,-0.192712 0.10749,-0.3829796 0.0973,-0.5781359 -0.0553,-1.0587198 -1.2044,-2.070324 -2.01183,-2.6068853 -0.33784,-0.2244996 -0.70389,-0.4033258 -1.05583,-0.6049884 -1.68968,-0.8420407 -3.31912,-1.4058818 -5.2174,-1.5253556 -1.31319,-0.082649 -1.68385,-0.00342 -2.97525,0.1079254 -0.46913,0.1053505 -0.94528,0.1832412 -1.40738,0.3160511 -2.12135,0.6096786 -4.06925,1.8890189 -5.88353,3.0653699 -0.63064,0.4088984 -1.56535,1.2905924 -2.1204,1.7906358 -0.31339,0.328551 -0.64927,0.63703 -0.940165,0.985655 -1.147925,1.375744 -2.074982,3.11215 -2.669842,4.799361 -0.130655,0.37058 -0.228076,0.752051 -0.342116,1.128076 -0.57526,2.258137 -0.180845,4.145474 0.508669,6.311829 0.433207,1.145198 0.920246,2.38652 1.851507,3.23444 0.181615,0.165362 1.459537,1.099863 1.654777,1.248893 1.48884,1.000284 3.67354,1.695816 3.67354,1.695816 1.407,0.442494 2.95082,0.562854 4.40825,0.813509 1.07466,0.184825 1.5572,0.195382 2.64376,0.277637 1.18379,0.05107 2.37283,0.0475 3.55005,-0.103369 0.4923,-0.06309 1.42566,-0.212508 1.88285,-0.452146 1.06167,-0.556483 2.07009,-1.209143 3.10514,-1.813714 0.23531,-0.229896 0.48686,-0.444275 0.70594,-0.689689 0.57464,-0.643707 1.50206,-1.911694 1.57778,-2.808682 0.0154,-0.182684 -0.0375,-0.364745 -0.0563,-0.547117 -0.13676,-0.158539 -0.2468,-0.344792 -0.41027,-0.475616 -0.72409,-0.579481 -1.79312,-0.685969 -2.66098,-0.439713 -0.19121,0.05426 -0.36743,0.151714 -0.55115,0.22757 -0.91817,0.580306 -1.88429,1.090922 -2.75452,1.740919 -0.16363,0.122221 -0.2232,0.345797 -0.29514,0.536947 -0.24042,0.638841 -0.14249,1.463492 0.21606,2.045576 0.16607,0.269612 0.41322,0.479929 0.61983,0.719893 0.28889,0.207039 0.55616,0.448174 0.86666,0.621112 0.36374,0.202591 0.7546,0.354405 1.14493,0.49927 1.51435,0.562024 3.08525,0.717158 4.68313,0.818529 0.3138,0.0096 0.6276,0.01916 0.9414,0.02873 l 2.1607,-1.563408 v 0 c -0.31805,-0.0028 -0.63611,-0.0055 -0.95417,-0.0083 -1.95067,-0.08655 -3.98727,-0.231547 -5.73782,-1.197804 -0.29091,-0.160571 -0.54155,-0.385178 -0.81233,-0.577768 -0.18193,-0.216649 -0.40252,-0.405996 -0.54579,-0.649941 -0.19813,-0.337368 -0.30218,-0.910606 -0.25534,-1.301075 0.0224,-0.186436 0.0867,-0.368863 0.17055,-0.53688 0.0851,-0.170575 0.51123,-0.526912 0.3303,-0.466863 -0.68183,0.226297 -1.27548,0.661485 -1.91321,0.992228 0.17353,-0.09463 0.33644,-0.212083 0.52059,-0.283888 0.79596,-0.310364 1.76565,-0.279842 2.48405,0.215136 0.12416,0.08554 0.21117,0.215262 0.31675,0.322893 0.01,0.151377 0.049,0.303626 0.03,0.454132 -0.10902,0.861081 -0.99939,2.047178 -1.57821,2.6438 -0.22571,0.232656 -0.48516,0.430027 -0.72774,0.645041 0.49484,-0.263157 1.0421,-0.44541 1.48454,-0.789472 0.24812,-0.192956 -0.58274,0.239799 -0.88564,0.323729 -1.46939,0.407152 -3.03127,0.363472 -4.53844,0.356829 -1.13185,-0.07647 -1.48805,-0.07137 -2.6037,-0.261866 -1.44054,-0.245975 -2.83023,-0.236567 -4.22024,-0.674219 -1.64586,-0.386474 -3.12748,-1.210149 -4.19321,-2.118317 -1.68277,-0.882106 -2.08367,-1.617088 -2.08367,-1.617088 -1.071657,-1.040453 -0.47842,-1.258123 -0.917758,-2.365233 -0.104689,-0.315742 -0.224473,-0.626874 -0.31407,-0.947225 -0.47817,-1.709671 -0.595932,-3.479873 -0.145744,-5.208611 0.11246,-0.367002 0.208677,-0.739381 0.337385,-1.101005 0.761097,-2.138423 1.986877,-4.104262 3.637347,-5.6660617 0.34437,-0.3033087 0.67852,-0.6186161 1.0331,-0.9099263 0.35791,-0.2940518 1.0592,-0.3840072 1.10311,-0.8451349 0.0379,-0.3975209 -1.42792,0.715691 -1.0733,0.5321018 1.23472,-0.6392335 2.49447,-1.205178 3.87874,-1.436685 1.29915,-0.1371247 1.62585,-0.2222898 2.94756,-0.1535538 1.81748,0.094519 3.49972,0.6474456 5.115,1.4645885 0.89975,0.5291309 1.69704,0.9796815 2.34201,1.8260417 0.25805,0.3386347 0.48069,0.6990297 0.45556,1.1438977 -0.009,0.158461 -0.0998,0.301317 -0.14976,0.451976 -0.76679,0.772654 -0.83323,0.766882 1.40331,-0.582403 0.22645,-0.136617 -0.47417,0.238023 -0.72441,0.323622 -1.04557,0.357664 -2.1624,0.423439 -3.25719,0.424248 -0.98866,-0.03829 -1.992,-0.02532 -2.88211,-0.532683 -0.14235,-0.08114 -0.28857,-0.177954 -0.37613,-0.316444 -0.15294,-0.241918 -0.0132,-0.620692 0.0348,-0.8478163 0.0816,-0.1804652 0.14753,-0.3689049 0.24489,-0.5413952 0.41742,-0.7395749 1.02134,-1.313995 1.68343,-1.8332515 0.29118,-0.2283643 1.26598,-0.6346629 0.89647,-0.6547953 -0.45069,-0.024556 -0.79603,0.4257211 -1.19405,0.6385818 1.18851,-0.6449233 2.38421,-1.2752597 3.60398,-1.8598064 0.38458,-0.1843053 0.77379,-0.3588392 1.16197,-0.5354482 0.31316,-0.1424782 0.63889,-0.2590842 0.94204,-0.421799 0.98057,-0.5263309 1.93737,-1.0957994 2.90605,-1.6436993 l -2.59347,1.0083964 z"
       id="path1010"
       style="fill:#00ffff;stroke:#000000;stroke-width:0.26458" />
    <path
       sodipodi:nodetypes="ccscscsssscsscscscssscccscssccccscscsscscscccscscscsscscssscsccssccssscscscsscssscsscccc"
       d="m 13.563027,23.955695 c 0.16908,-1.725788 0.439392,-3.441499 0.737335,-5.149208 0.371965,-2.124984 0.93441,-4.219084 1.721721,-6.228947 0.164416,-0.419725 0.349103,-0.831225 0.523655,-1.246838 0.814152,-1.9012393 1.404022,-3.2872838 3.007196,-4.6497925 0.280133,-0.2380797 0.858453,-0.704441 1.154047,-0.9230285 0.300149,-0.1679234 1.121584,-0.7671812 0.900446,-0.5037699 -0.32983,0.3928831 -1.011358,0.1385953 -1.107619,0.6424596 -0.07118,0.3725824 0.604181,0.086352 0.97923,0.029582 0.661297,-0.1000994 1.537235,-0.1503034 2.207665,-0.060591 0.379759,0.050817 0.747728,0.1676273 1.121592,0.251441 0.358114,0.1495183 0.736621,0.2573852 1.074342,0.4485551 1.171576,0.6631801 2.070251,1.7288729 2.697038,2.9046643 0.555896,1.0428029 0.649367,1.5708369 0.984079,2.7005479 0.431932,1.832702 0.63949,3.710063 0.466476,5.589763 -0.106727,1.159494 -0.203494,1.440164 -0.448929,2.56951 -0.758498,2.286669 -1.949058,4.412533 -3.482545,6.26973 -0.231215,0.280026 -0.482147,0.543169 -0.723221,0.814752 -0.234566,0.205778 -0.457931,0.425072 -0.703698,0.617334 -0.208432,0.163056 -0.885434,0.579118 -0.656354,0.44663 0.588028,-0.340089 1.202567,-0.647377 1.734321,-1.070073 0.131619,-0.104625 -0.328838,0.08969 -0.496944,0.08647 -0.431303,-0.0083 -0.544817,-0.168601 -0.883758,-0.406795 -1.092023,-1.101808 -1.401986,-2.411348 -1.585346,-3.899561 -0.005,-0.185184 -0.04651,-0.878912 0.02746,-1.092972 0.04538,-0.13132 0.162515,-0.2254 0.243773,-0.3381 -0.589607,0.376073 -1.254662,0.654187 -1.768822,1.128221 -0.19876,0.183248 0.515094,-0.170369 0.781256,-0.217728 0.296258,-0.05271 0.599379,-0.05417 0.899068,-0.08126 2.115779,0.115378 4.029606,1.106332 5.882039,2.052469 1.259937,0.621661 2.606502,1.332497 4.052921,1.326069 0.25461,-0.0011 0.506834,-0.0493 0.760252,-0.07394 2.05367,-0.659607 4.256481,-1.813675 5.169845,-3.872319 0.104642,-0.235854 0.169482,-0.487425 0.254222,-0.731138 0.203952,-0.809426 0.19775,-1.619678 -0.56595,-2.132928 -0.522561,-0.351192 -1.027472,-0.429257 -1.63054,-0.596655 -0.438295,-0.06508 -0.874546,-0.145891 -1.314889,-0.195251 C 34.772927,18.273159 32.89607,18.156629 32.12142,18.10422 30.228067,17.976124 28.336298,17.856001 26.445374,17.695191 23.321062,17.422798 20.321443,16.454774 17.486593,15.143132 16.950946,14.895296 16.429559,14.617736 15.901042,14.355038 13.708138,13.143473 11.619392,11.669666 9.9267021,9.8062759 9.6817982,9.5366744 9.4632495,9.2442588 9.2315232,8.9632505 8.6567377,8.2739765 8.2646836,7.4640542 7.7303349,6.7481748 L 5.3629877,8.1628423 v 0 c 0.585307,0.6829066 1.0067472,1.4862588 1.6068684,2.1603367 0.2440001,0.282282 0.4759664,0.575431 0.7320008,0.846845 1.7507473,1.855911 3.8709081,3.341218 6.0946001,4.570773 0.534312,0.264246 1.061767,0.542837 1.602936,0.79274 2.85171,1.316876 5.872418,2.333213 9.015328,2.610823 1.885504,0.160673 3.771735,0.289316 5.659082,0.425412 0.943844,0.06806 2.412644,0.16957 3.369397,0.291766 0.417918,0.05338 0.831504,0.136442 1.247257,0.204662 0.620236,0.17369 1.450248,0.299372 1.87543,0.861627 0.333517,0.441031 0.182002,1.020278 0.07165,1.500495 -0.305489,0.783003 -0.556655,1.34698 -1.166708,1.957629 -0.186314,0.186496 -0.854291,0.59976 -0.608018,0.505725 0.589194,-0.224974 1.128712,-0.567987 1.660219,-0.907489 0.211965,-0.135396 -0.46397,0.194373 -0.695954,0.29156 -0.244118,0.03872 -0.485639,0.101152 -0.732352,0.116175 -1.428714,0.087 -2.777477,-0.615437 -4.023445,-1.213393 -1.88613,-0.950472 -3.824279,-1.944726 -5.951544,-2.177797 -2.174535,0.08795 -2.234176,0.233418 -4.579736,1.883843 -0.13072,0.09198 -0.150145,0.286927 -0.182353,0.443486 -0.05282,0.256742 0.01334,0.890084 0.0301,1.12188 0.221448,1.524105 0.584123,2.941135 1.669365,4.097413 0.363053,0.298078 0.513065,0.508372 0.996182,0.581541 1.200343,0.181791 3.165622,-1.461497 3.469433,-1.640954 0.222946,-0.131692 0.42412,-0.298528 0.6208,-0.466949 0.23336,-0.199829 0.444759,-0.423961 0.667139,-0.635943 0.639643,-0.760731 0.844941,-0.970439 1.430065,-1.821483 1.137909,-1.655058 2.062087,-3.456552 2.685554,-5.36768 0.232698,-1.141051 0.328227,-1.432945 0.420557,-2.602579 0.150247,-1.903306 -0.08208,-3.804874 -0.524564,-5.656598 C 31.479927,9.783998 31.379468,9.2337497 30.814505,8.1668073 30.176738,6.9623745 29.247287,5.8215421 28.067813,5.1099338 27.725439,4.9033688 27.336884,4.7854259 26.97142,4.6231722 26.591568,4.5230425 26.219622,4.3856691 25.831858,4.3227832 c -0.660149,-0.1070605 -1.59873,-0.064459 -2.253431,0.015375 -0.38056,0.046405 -0.779055,0.052024 -1.132535,0.2004551 -1.995959,0.8381281 -2.704627,1.297921 -4.190827,2.1969588 -0.288342,0.2277732 -0.591687,0.4377429 -0.865025,0.6833191 -0.52775,0.4741494 -1.15315,1.1729147 -1.556596,1.7551105 -0.692122,0.9987733 -1.146989,2.1434933 -1.644509,3.2431333 -0.995038,2.432674 -1.839038,4.924299 -2.234279,7.533134 -0.314843,1.746603 -0.619572,3.494859 -0.904328,5.246597 z"
       id="path986"
       style="fill:#00ffff;stroke:#000000;stroke-width:0.26458" />
    <path
       d="m 9.7861789,126.78786 c 0.2027125,-1.26138 0.5576861,-2.50087 0.9296411,-3.72213 0.690448,-2.10956 1.465238,-4.22209 2.635543,-6.1207 0.254235,-0.41245 0.545055,-0.80119 0.817582,-1.20179 0.874089,-1.12922 1.806678,-2.24252 2.920568,-3.14762 0.399601,-0.3247 0.834614,-0.60322 1.253542,-0.90257 0.196465,-0.14038 -0.82016,0.48519 -0.586143,0.42567 0.62287,-0.15841 1.189592,-0.48695 1.784389,-0.73042 2.408788,-0.82135 4.919924,-1.33692 7.466478,-1.43256 0.558099,-0.021 1.118197,-0.033 1.675476,0.004 0.559174,0.0369 1.111416,0.1446 1.667122,0.2169 1.894863,0.39433 3.73503,1.10335 5.250156,2.33564 0.825558,0.67145 0.945963,0.91503 1.598074,1.73873 1.403337,2.16774 2.242315,4.63466 2.785286,7.14628 0.110936,0.51317 0.193556,1.03204 0.290334,1.54806 0.287464,2.02125 0.582153,4.05249 0.604044,6.09746 -0.08877,0.95065 -0.159758,1.89881 -0.164097,2.85386 0,0 2.460887,-1.25095 2.460887,-1.25095 v 0 c 0.01373,-0.94926 0.07226,-1.89468 0.1203,-2.84232 -0.08266,-2.03701 -0.458668,-4.05009 -0.766878,-6.06145 -0.612939,-3.07428 -1.391479,-6.15062 -3.076935,-8.83583 -0.67664,-0.85575 -0.792759,-1.0996 -1.652813,-1.79377 -1.553908,-1.25418 -3.446033,-1.97291 -5.377139,-2.39766 -0.562166,-0.0816 -1.119991,-0.20285 -1.686496,-0.24478 -0.566609,-0.0419 -1.136647,-0.0259 -1.704462,-0.006 -2.563521,0.0891 -5.092637,0.58824 -7.528198,1.38268 -0.594206,0.23189 -1.212956,0.40872 -1.782617,0.69566 -1.696866,0.85474 -3.52883,1.78734 -5.0212,3.03506 -1.105578,0.92433 -2.024532,2.05546 -2.890257,3.19827 -0.270161,0.40785 -0.558072,0.80448 -0.810484,1.22354 -1.1686517,1.94023 -1.9446637,4.08442 -2.6989938,6.20918 -0.3892395,1.2589 -0.7640102,2.52737 -1.031141,3.81848 0,0 2.5184317,-1.23851 2.5184317,-1.23851 z"
       id="path1072"
       style="fill:#f08080;stroke:#000000;stroke-width:0.26458" />
    <path
       d="m 6.3896295,106.30376 c 1.6322699,0.68055 3.1440957,1.63588 4.5372765,2.72024 0.427024,0.33236 0.832427,0.69161 1.248641,1.03742 1.411981,1.28168 2.645074,2.75324 3.55103,4.43706 0.557171,1.03556 0.700604,1.49013 1.132444,2.58012 0.551556,1.52469 0.97237,3.10319 1.17784,4.71381 0.08703,0.68217 0.09134,1.09829 0.120226,1.77556 -0.0209,1.35518 -0.226775,2.69973 -0.364822,4.04668 -0.174663,1.16755 -0.0017,2.33888 0.183693,3.49379 0.100224,0.71969 0.06683,0.38652 0.111295,0.99833 0,0 2.445968,-1.28061 2.445968,-1.28061 v 0 c -0.09087,-0.60523 -0.03872,-0.27573 -0.159575,-0.98803 -0.184381,-1.14119 -0.270655,-2.28917 -0.133401,-3.44193 0.116276,-1.35184 0.333133,-2.70025 0.302076,-4.05994 -0.1476,-2.23383 -0.619259,-4.42442 -1.426933,-6.5171 -0.381129,-0.95467 -0.653836,-1.71518 -1.141283,-2.62437 -0.918137,-1.71252 -2.210946,-3.18118 -3.639654,-4.48341 -1.762342,-1.47318 -3.578809,-2.90093 -5.6214996,-3.97144 0,0 -2.3233219,1.56382 -2.3233219,1.56382 z"
       id="path1070"
       style="fill:#f08080;stroke:#000000;stroke-width:0.26458" />
    <path
       d="m 104.40668,119.16691 c 0.7026,-0.94376 1.60295,-1.68543 2.54635,-2.37446 0.26055,-0.15668 1.03543,-0.63752 0.78167,-0.47005 -0.4028,0.26582 -1.09201,0.30254 -1.22904,0.76528 -0.11948,0.40348 0.76456,-0.35237 1.15398,-0.51182 1.05975,-0.4339 2.13321,-0.73881 3.24354,-1.00699 1.61762,-0.31466 3.36618,-0.3907 4.96311,0.102 0.24434,0.0754 0.47371,0.1927 0.71056,0.28905 1.34777,0.7622 1.75616,1.66477 2.26963,3.0527 0.44321,1.44607 0.62722,2.9576 0.52474,4.46757 -0.0221,0.32516 -0.0697,0.64806 -0.10463,0.9721 -0.22118,1.3059 -0.56142,2.59383 -1.08407,3.81367 -0.33764,0.78803 -0.63599,1.2969 -1.04385,2.04903 -0.74954,1.27946 -1.59299,2.5011 -2.31487,3.79659 0,0 2.50883,-1.12176 2.50883,-1.12176 v 0 c 0.70484,-1.26854 1.48825,-2.49126 2.20597,-3.75248 0.3954,-0.74689 0.71183,-1.30559 1.04154,-2.08668 0.52415,-1.24166 0.87729,-2.54891 1.06886,-3.88176 0.0322,-0.33042 0.077,-0.65986 0.0967,-0.99127 0.0918,-1.545 -0.0998,-3.09143 -0.53411,-4.57539 -0.52323,-1.4798 -0.98005,-2.42083 -2.39412,-3.2395 -0.25022,-0.10535 -0.49198,-0.23362 -0.75066,-0.31606 -1.19099,-0.37956 -2.80531,-0.47334 -4.0421,-0.35259 -0.34258,0.0334 -0.67891,0.11393 -1.01837,0.17089 -0.98885,0.22844 -1.17081,0.24662 -2.15061,0.57268 -2.28812,0.76146 -4.39947,1.93102 -6.41387,3.25209 -0.96304,0.7272 -1.84051,1.53513 -2.62808,2.45116 0,0 2.59287,-1.074 2.59287,-1.074 z"
       id="path1030"
       style="fill:#f08080;stroke:#000000;stroke-width:0.26458" />
    <path
       d="m 103.73082,105.559 c 0.41262,1.29082 0.0454,2.6321 -0.33963,3.88133 -0.0965,0.21691 -0.17466,0.44301 -0.28965,0.65074 -0.248,0.44801 -0.53562,0.78722 -0.91615,1.1293 -0.19766,0.17769 -0.86551,0.61009 -0.62731,0.49218 3.31885,-1.64295 1.40032,-0.89212 0.78233,-0.6686 -0.2252,0.0399 -0.44698,0.11316 -0.67558,0.11963 -0.96551,0.0273 -1.770765,-0.53961 -2.316905,-1.28826 -0.129978,-0.17817 -0.23151,-0.37545 -0.347267,-0.56317 -0.261781,-0.56297 -0.518386,-1.27404 -0.02164,-1.79955 0.109999,-0.11637 0.52449,-0.36627 0.385821,-0.2862 -0.614429,0.35478 -1.210136,0.74103 -1.815204,1.11155 1.07715,-0.42659 2.229361,-0.26553 3.198515,0.36349 0.21292,0.13819 0.4018,0.31031 0.6027,0.46547 1.13822,1.0839 1.94762,2.44428 2.39565,3.9498 0.10311,0.34649 0.17242,0.70216 0.25863,1.05323 0.37899,3.09955 -0.0906,6.22196 -0.68715,9.26255 -0.5398,2.60756 -1.36056,5.14565 -2.40641,7.59205 -0.34583,0.80179 -0.70518,1.59625 -1.162746,2.34062 0,0 2.513006,-1.11901 2.513006,-1.11901 v 0 c 0.40734,-0.75512 0.74864,-1.5415 1.06789,-2.33775 0.96075,-2.46348 1.76841,-4.98633 2.27382,-7.58596 0.2343,-1.22831 0.41308,-2.06043 0.56927,-3.30427 0.2534,-2.01804 0.35598,-4.07664 0.15555,-6.10258 -0.0868,-0.36105 -0.15549,-0.72693 -0.26033,-1.08316 -0.45732,-1.55399 -1.29372,-2.95284 -2.43404,-4.10021 -0.20648,-0.1695 -0.40008,-0.35604 -0.61944,-0.50849 -0.77494,-0.5386 -1.76633,-0.85427 -2.71443,-0.73895 -0.21001,0.0255 -0.411572,0.0981 -0.617359,0.14719 -0.953502,0.54434 -1.930506,1.04943 -2.860504,1.63301 -0.147231,0.0924 -0.25954,0.23719 -0.353199,0.38362 -0.417359,0.65249 -0.118198,1.40786 0.185693,2.02902 0.5591,0.88211 1.08196,1.61481 2.124194,1.9607 0.232103,0.077 0.473527,0.14152 0.717882,0.1513 0.241178,0.01 0.478673,-0.0625 0.718003,-0.0938 1.78491,-0.55256 1.05706,-0.26518 3.84031,-1.9889 0.34944,-0.21642 0.88217,-0.78029 1.12506,-1.11404 0.37642,-0.51723 0.41632,-0.72299 0.64938,-1.3083 0.37258,-1.32792 0.70433,-2.71485 0.34937,-4.0857 0,0 -2.44814,1.36013 -2.44814,1.36013 z"
       id="path1026"
       style="fill:#f08080;stroke:#000000;stroke-width:0.26458" />
  </g>
</svg>
